<?xml version="1.0" encoding="utf-8"?><svg xmlns="http://www.w3.org/2000/svg" xmlns:xlink="http://www.w3.org/1999/xlink"><symbol viewBox="0 0 55 56" id="Server" xmlns="http://www.w3.org/2000/svg"><rect y=".049" width="55" height="55" rx="27.5"/><path d="M35.5 18.55h-16a2 2 0 00-2 2v4a2 2 0 002 2h16a2 2 0 002-2v-4a2 2 0 00-2-2zm-5 4a1 1 0 11-2 0 1 1 0 012 0zm4 0a1 1 0 11-2 0 1 1 0 012 0zm1 6h-16a2 2 0 00-2 2v4a2 2 0 002 2h16a2 2 0 002-2v-4a2 2 0 00-2-2zm-5 4a1 1 0 11-2 0 1 1 0 012 0zm4 0a1 1 0 11-2 0 1 1 0 012 0z"/></symbol><symbol viewBox="0 0 25 25" id="checked_icon" xmlns="http://www.w3.org/2000/svg"><path d="M12.121 2.55c-5.514 0-10 4.485-10 10 0 5.513 4.486 10 10 10s10-4.487 10-10c0-5.515-4.485-10-10-10zm-1.998 14.412l-3.006-2.999a1 1 0 111.412-1.415l1.591 1.588 4.588-4.587a1 1 0 111.414 1.414l-6 6z"/></symbol><symbol viewBox="0 0 20 19" id="chevron-left" xmlns="http://www.w3.org/2000/svg"><path d="M18.75 8.003H3.925l4.538-5.45a1.252 1.252 0 00-1.925-1.6l-6.25 7.5a1.43 1.43 0 00-.113.187c0 .063 0 .1-.087.163a1.25 1.25 0 00-.088.45c.001.154.03.307.088.45 0 .062 0 .1.087.162.033.066.07.128.112.188l6.25 7.5a1.25 1.25 0 001.763.162 1.25 1.25 0 00.162-1.762l-4.537-5.45H18.75a1.25 1.25 0 000-2.5z"/></symbol><symbol viewBox="0 0 20 19" id="chevron-right" xmlns="http://www.w3.org/2000/svg"><path d="M1.25 8.003h14.825l-4.537-5.45a1.251 1.251 0 111.925-1.6l6.25 7.5c.041.06.08.122.112.187 0 .063 0 .1.088.163.056.143.086.296.087.45a1.25 1.25 0 01-.087.45c0 .062 0 .1-.088.162-.033.066-.07.128-.113.188l-6.25 7.5a1.25 1.25 0 01-.962.45 1.25 1.25 0 01-.963-2.05l4.538-5.45H1.25a1.25 1.25 0 010-2.5z"/></symbol><symbol viewBox="0 0 34 35" id="facebook" xmlns="http://www.w3.org/2000/svg"><path d="M16.8.58C7.521.58 0 8.103 0 17.38c0 9.28 7.521 16.8 16.8 16.8 9.278 0 16.8-7.52 16.8-16.8 0-9.278-7.522-16.8-16.8-16.8zm3.98 11.61h-2.526c-.299 0-.632.394-.632.917v1.824h3.16l-.479 2.6h-2.68v7.807h-2.98V17.53h-2.705v-2.6h2.704V13.4c0-2.194 1.523-3.978 3.612-3.978h2.525v2.767z"/></symbol><symbol viewBox="0 0 34 35" id="insta" xmlns="http://www.w3.org/2000/svg"><path d="M22.25 17.38a5.25 5.25 0 01-10.5 0c0-.299.031-.59.086-.874H10V23.5c0 .487.394.88.88.88h12.242A.88.88 0 0024 23.5v-6.994h-1.836c.054.283.086.575.086.875zM17 20.88a3.5 3.5 0 002.474-5.976A3.5 3.5 0 1017 20.88zm4.2-7.174h2.098a.527.527 0 00.527-.525v-2.099a.527.527 0 00-.527-.526H21.2a.527.527 0 00-.527.526v2.099a.53.53 0 00.527.525zM17 .58a16.8 16.8 0 100 33.6 16.8 16.8 0 000-33.6zm8.75 23.605a1.95 1.95 0 01-1.944 1.945H10.194a1.95 1.95 0 01-1.944-1.945v-13.61a1.95 1.95 0 011.944-1.944h13.612a1.95 1.95 0 011.944 1.944v13.611z"/></symbol><symbol viewBox="0 0 56 56" id="location" xmlns="http://www.w3.org/2000/svg"><rect x=".5" y=".049" width="55" height="55" rx="27.5"/><path d="M35 24.55a7.002 7.002 0 00-9.679-6.468A6.998 6.998 0 0021 24.55c0 1.387.41 2.677 1.105 3.765h-.008C24.457 32.01 28 37.55 28 37.55l5.903-9.235h-.007A6.98 6.98 0 0035 24.55zm-7 3a3 3 0 110-6 3 3 0 010 6z"/></symbol><symbol viewBox="0 0 14 14" id="rating-star" xmlns="http://www.w3.org/2000/svg"><path d="M13.19 5.418l-3.968-.577-1.774-3.595a.502.502 0 00-.897 0L4.779 4.841l-3.967.577a.5.5 0 00-.277.853l2.87 2.799-.677 3.951a.5.5 0 00.725.527L7 11.682l3.548 1.866a.5.5 0 00.725-.527l-.678-3.951 2.87-2.799a.499.499 0 00-.276-.853z"/></symbol><symbol viewBox="0 0 35 35" id="twitter" xmlns="http://www.w3.org/2000/svg"><path d="M17.4.58C8.121.58.6 8.103.6 17.38c0 9.28 7.521 16.8 16.8 16.8s16.8-7.52 16.8-16.8c0-9.278-7.522-16.8-16.8-16.8zm6.834 13.763c.007.143.008.287.008.427 0 4.375-3.326 9.416-9.413 9.416A9.336 9.336 0 019.758 22.7a6.6 6.6 0 00.789.044c1.55 0 2.977-.527 4.109-1.416a3.316 3.316 0 01-3.09-2.296 3.325 3.325 0 001.492-.058 3.311 3.311 0 01-2.655-3.244v-.04c.447.246.958.397 1.5.414a3.308 3.308 0 01-1.024-4.42 9.407 9.407 0 006.82 3.46 3.31 3.31 0 015.639-3.02 6.644 6.644 0 002.1-.803 3.325 3.325 0 01-1.454 1.833 6.648 6.648 0 001.9-.524 6.711 6.711 0 01-1.65 1.714z"/></symbol><symbol viewBox="0 0 55 56" id="user" xmlns="http://www.w3.org/2000/svg"><rect y=".049" width="55" height="55" rx="27.5"/><path fill-rule="evenodd" clip-rule="evenodd" d="M27.5 26.35a3.6 3.6 0 100-7.2 3.6 3.6 0 000 7.2zm-5.101 10.8c-1.822 0-3.357-1.532-2.66-3.215a8.401 8.401 0 0115.522 0c.697 1.683-.838 3.214-2.66 3.214H22.4z"/></symbol><symbol viewBox="0 0 14 10" id="vector" xmlns="http://www.w3.org/2000/svg"><path d="M5.449 9.28a.997.997 0 01-.707-.292L.5 4.745A1 1 0 111.913 3.33l3.535 3.535L11.813.502a1 1 0 011.415 1.414L6.156 8.988a.997.997 0 01-.707.292z"/></symbol></svg>